<?xml version="1.0" standalone="no"?>
<!DOCTYPE svg PUBLIC "-//W3C//DTD SVG 1.1//EN" "https://www.w3.org/Graphics/SVG/1.1/DTD/svg11.dtd">

<svg width="800" height="600" version="1.1" xmlns="http://www.w3.org/2000/svg">
	<ellipse stroke="black" stroke-width="1" fill="none" cx="68.5" cy="421.5" rx="30" ry="30"/>
	<text x="51.5" y="427.5" font-family="Times New Roman" font-size="20">start</text>
	<ellipse stroke="black" stroke-width="1" fill="none" cx="217.5" cy="298.5" rx="30" ry="30"/>
	<text x="143.5" y="304.5" font-family="Times New Roman" font-size="20">show hidden word</text>
	<ellipse stroke="black" stroke-width="1" fill="none" cx="320.5" cy="117.5" rx="30" ry="30"/>
	<text x="240.5" y="123.5" font-family="Times New Roman" font-size="20">unlock word submit</text>
	<ellipse stroke="black" stroke-width="1" fill="none" cx="705.5" cy="206.5" rx="30" ry="30"/>
	<text x="634.5" y="212.5" font-family="Times New Roman" font-size="20">wait for opponent</text>
	<ellipse stroke="black" stroke-width="1" fill="none" cx="531.5" cy="474.5" rx="30" ry="30"/>
	<text x="481.5" y="480.5" font-family="Times New Roman" font-size="20">Reveal hints</text>
	<ellipse stroke="black" stroke-width="1" fill="none" cx="1081.5" cy="130.5" rx="30" ry="30"/>
	<text x="1040.5" y="136.5" font-family="Times New Roman" font-size="20">start timer</text>
	<ellipse stroke="black" stroke-width="1" fill="none" cx="1017.5" cy="555.5" rx="30" ry="30"/>
	<text x="944.5" y="561.5" font-family="Times New Roman" font-size="20">pick random word</text>
	<ellipse stroke="black" stroke-width="1" fill="none" cx="245.5" cy="555.5" rx="30" ry="30"/>
	<text x="229.5" y="561.5" font-family="Times New Roman" font-size="20">lose</text>
	<ellipse stroke="black" stroke-width="1" fill="none" cx="447.5" cy="699.5" rx="30" ry="30"/>
	<text x="432.5" y="705.5" font-family="Times New Roman" font-size="20">win</text>
	<ellipse stroke="black" stroke-width="1" fill="none" cx="195.5" cy="863.5" rx="30" ry="30"/>
	<text x="172.5" y="869.5" font-family="Times New Roman" font-size="20">lobby</text>
	<ellipse stroke="black" stroke-width="1" fill="none" cx="228.5" cy="699.5" rx="30" ry="30"/>
	<text x="206.5" y="705.5" font-family="Times New Roman" font-size="20">menu</text>
	<ellipse stroke="black" stroke-width="1" fill="none" cx="57.5" cy="691.5" rx="30" ry="30"/>
	<text x="25.5" y="697.5" font-family="Times New Roman" font-size="20">rematch</text>
	<polygon stroke="black" stroke-width="1" points="91.635,402.402 194.365,317.598"/>
	<polygon fill="black" stroke-width="1" points="194.365,317.598 185.012,318.835 191.378,326.547"/>
	<text x="148.5" y="380.5" font-family="Times New Roman" font-size="20">recieve word</text>
	<polygon stroke="black" stroke-width="1" points="232.338,272.426 305.662,143.574"/>
	<polygon fill="black" stroke-width="1" points="305.662,143.574 297.36,148.054 306.051,153"/>
	<text x="275.5" y="226.5" font-family="Times New Roman" font-size="20">5s</text>
	<polygon stroke="black" stroke-width="1" points="349.729,124.257 676.271,199.743"/>
	<polygon fill="black" stroke-width="1" points="676.271,199.743 669.603,193.07 667.35,202.813"/>
	<text x="425.5" y="187.5" font-family="Times New Roman" font-size="20">submit word</text>
	<polygon stroke="black" stroke-width="1" points="689.164,231.662 547.836,449.338"/>
	<polygon fill="black" stroke-width="1" points="547.836,449.338 556.386,445.351 547.999,439.906"/>
	<text x="470.5" y="333.5" font-family="Times New Roman" font-size="20">opponent submits</text>
	<polygon stroke="black" stroke-width="1" points="516.236,448.674 335.764,143.326"/>
	<polygon fill="black" stroke-width="1" points="335.764,143.326 335.53,152.757 344.139,147.669"/>
	<polygon stroke="black" stroke-width="1" points="350.496,118.012 1051.504,129.988"/>
	<polygon fill="black" stroke-width="1" points="1051.504,129.988 1043.591,124.852 1043.42,134.85"/>
	<text x="629.5" y="146.5" font-family="Times New Roman" font-size="20">opponent submits</text>
	<polygon stroke="black" stroke-width="1" points="1077.033,160.166 1021.967,525.834"/>
	<polygon fill="black" stroke-width="1" points="1021.967,525.834 1028.103,518.668 1018.214,517.179"/>
	<text x="1014.5" y="347.5" font-family="Times New Roman" font-size="20">30s</text>
	<polygon stroke="black" stroke-width="1" points="1056.065,146.408 556.935,458.592"/>
	<polygon fill="black" stroke-width="1" points="556.935,458.592 566.369,458.589 561.066,450.11"/>
	<text x="700.5" y="293.5" font-family="Times New Roman" font-size="20">submit word</text>
	<polygon stroke="black" stroke-width="1" points="987.908,550.568 561.092,479.432"/>
	<polygon fill="black" stroke-width="1" points="561.092,479.432 568.161,485.679 569.805,475.815"/>
	<text x="748.5" y="500.5" font-family="Times New Roman" font-size="20">submit word</text>
	<polygon stroke="black" stroke-width="1" points="502.635,482.675 274.365,547.325"/>
	<polygon fill="black" stroke-width="1" points="274.365,547.325 283.424,549.956 280.699,540.334"/>
	<text x="278.5" y="502.5" font-family="Times New Roman" font-size="20">opponent wins</text>
	<polygon stroke="black" stroke-width="1" points="521.007,502.605 457.993,671.395"/>
	<polygon fill="black" stroke-width="1" points="457.993,671.395 465.475,665.649 456.106,662.151"/>
	<text x="389.5" y="584.5" font-family="Times New Roman" font-size="20">player wins</text>
	<polygon stroke="black" stroke-width="1" points="241.983,585.293 232.017,669.707"/>
	<polygon fill="black" stroke-width="1" points="232.017,669.707 237.921,662.348 227.99,661.176"/>
	<polygon stroke="black" stroke-width="1" points="417.5,699.5 258.5,699.5"/>
	<polygon fill="black" stroke-width="1" points="258.5,699.5 266.5,704.5 266.5,694.5"/>
	<polygon stroke="black" stroke-width="1" points="222.582,728.911 201.418,834.089"/>
	<polygon fill="black" stroke-width="1" points="201.418,834.089 207.898,827.233 198.094,825.26"/>
	<polygon stroke="black" stroke-width="1" points="198.533,698.098 87.467,692.902"/>
	<polygon fill="black" stroke-width="1" points="87.467,692.902 95.225,698.27 95.692,688.281"/>
</svg>
